<svg version="1.1" id="Layer_1" xmlns="http://www.w3.org/2000/svg" xmlns:xlink="http://www.w3.org/1999/xlink" x="0px" y="0px"
	 width="100%" viewBox="0 0 316 336" enable-background="new 0 0 316 336" xml:space="preserve">
<path fill="#A4A89D" opacity="1.000000" stroke="none" 
	d="
M178.000000,337.000000 
	C118.666695,337.000000 59.833397,337.000000 1.000071,337.000000 
	C1.000047,225.000092 1.000047,113.000183 1.000024,1.000206 
	C106.333183,1.000138 211.666367,1.000138 316.999634,1.000069 
	C316.999756,112.999794 316.999756,224.999588 316.999878,336.999695 
	C270.833344,337.000000 224.666672,337.000000 178.000000,337.000000 
M104.028114,222.511917 
	C121.379593,234.997879 141.094849,239.039505 162.053726,239.237152 
	C185.345749,239.456802 207.123352,234.890976 225.797958,220.127808 
	C243.380814,206.227707 262.868713,198.060196 285.646729,198.801025 
	C287.076813,198.847519 288.555786,197.391235 290.011993,196.634109 
	C289.825439,196.113571 289.638885,195.593048 289.452332,195.072510 
	C260.932892,195.072510 232.413452,195.072510 202.534546,195.072510 
	C206.338547,192.409424 209.273819,190.842651 211.603622,188.636490 
	C220.304428,180.397491 228.804932,171.947006 237.384201,163.579575 
	C245.701019,155.468094 254.653702,148.193130 266.304962,145.688309 
	C272.272064,144.405487 278.511444,144.432434 284.595428,143.624207 
	C286.436157,143.379715 288.168579,142.320282 289.950623,141.634125 
	C289.781555,141.055847 289.612488,140.477554 289.443390,139.899261 
	C266.405701,139.899261 243.367981,139.899261 219.371506,139.899261 
	C225.977173,130.855011 232.002319,122.560898 238.074524,114.301361 
	C249.888885,98.231194 265.099030,88.393799 285.672516,88.226288 
	C287.047699,88.215096 288.412323,86.903831 289.781860,86.197235 
	C289.579773,85.716789 289.377716,85.236336 289.175659,84.755890 
	C268.751953,84.755890 248.328247,84.755890 226.427887,84.755890 
	C232.668137,74.883484 238.002960,65.732712 244.032028,57.064831 
	C254.128784,42.548882 267.147156,32.724869 285.909546,32.999355 
	C287.102600,33.016808 288.314240,31.763174 289.517212,31.100863 
	C289.298248,30.726954 289.079254,30.353046 288.860260,29.979137 
	C205.002319,29.979137 121.144356,29.979137 37.286396,29.979137 
	C37.164032,30.529793 37.041668,31.080450 36.919304,31.631105 
	C38.637749,32.121387 40.341484,32.969772 42.077141,33.041069 
	C50.387226,33.382465 58.325275,35.057167 65.274071,39.780640 
	C81.449623,50.776047 89.734322,67.761597 99.835304,84.951912 
	C78.169151,84.951912 57.698448,84.951912 37.227745,84.951912 
	C37.111656,85.590866 36.995571,86.229813 36.879486,86.868767 
	C38.627235,87.360466 40.359623,88.210236 42.125214,88.285980 
	C53.911446,88.791550 64.835045,91.794449 74.153801,99.295860 
	C87.845589,110.317467 96.137299,125.688622 107.488785,140.102066 
	C83.259895,140.102066 60.242607,140.102066 37.225323,140.102066 
	C37.080769,140.744431 36.936214,141.386780 36.791660,142.029144 
	C38.776833,142.584305 40.775948,143.663528 42.744946,143.611130 
	C57.532745,143.217560 70.945030,147.168442 81.911362,157.143463 
	C95.596146,169.591187 108.728378,182.646408 121.995277,195.339920 
	C94.242889,195.339920 65.731430,195.339920 37.219967,195.339920 
	C37.070808,195.921631 36.921650,196.503342 36.772491,197.085068 
	C38.430027,197.692810 40.048347,198.657135 41.752117,198.844528 
	C48.027935,199.534775 54.394382,199.578018 60.613464,200.572784 
	C77.108223,203.211166 90.507126,212.242188 104.028114,222.511917 
M111.500137,250.362991 
	C86.768478,250.362991 62.036819,250.362991 37.011475,250.362991 
	C38.577515,254.036865 38.580173,254.143433 42.657928,254.041763 
	C61.686958,253.567322 80.137802,256.353333 97.808189,263.643768 
	C130.456390,277.113800 164.361511,277.157715 198.496368,272.296051 
	C208.255386,270.906097 217.906555,267.627869 227.159760,264.056335 
	C245.610336,256.934814 264.538116,253.462326 284.266449,254.035141 
	C286.562164,254.101807 289.461060,254.733231 289.427551,250.363129 
	C230.337692,250.363129 171.418915,250.363129 111.500137,250.362991 
M52.508385,309.046570 
	C128.965210,309.046570 205.422043,309.046600 281.878876,309.046417 
	C283.211456,309.046417 284.637573,309.343811 285.852600,308.965179 
	C287.325897,308.506012 288.620880,307.474701 289.993011,306.690918 
	C289.777832,306.317383 289.562622,305.943817 289.347443,305.570282 
	C205.328903,305.570282 121.310379,305.570282 37.291851,305.570282 
	C37.099731,306.072357 36.907612,306.574402 36.715492,307.076477 
	C38.150154,307.732361 39.548740,308.835236 41.026718,308.954529 
	C44.502167,309.235046 48.015537,309.045746 52.508385,309.046570 
z"/>
<path fill="#1B1A1A" opacity="1.000000" stroke="none" 
	d="
M103.736900,222.298950 
	C90.507126,212.242188 77.108223,203.211166 60.613464,200.572784 
	C54.394382,199.578018 48.027935,199.534775 41.752117,198.844528 
	C40.048347,198.657135 38.430027,197.692810 36.772491,197.085068 
	C36.921650,196.503342 37.070808,195.921631 37.219967,195.339920 
	C65.731430,195.339920 94.242889,195.339920 121.995277,195.339920 
	C108.728378,182.646408 95.596146,169.591187 81.911362,157.143463 
	C70.945030,147.168442 57.532745,143.217560 42.744946,143.611130 
	C40.775948,143.663528 38.776833,142.584305 36.791660,142.029144 
	C36.936214,141.386780 37.080769,140.744431 37.225323,140.102066 
	C60.242607,140.102066 83.259895,140.102066 107.488785,140.102066 
	C96.137299,125.688622 87.845589,110.317467 74.153801,99.295860 
	C64.835045,91.794449 53.911446,88.791550 42.125214,88.285980 
	C40.359623,88.210236 38.627235,87.360466 36.879486,86.868767 
	C36.995571,86.229813 37.111656,85.590866 37.227745,84.951912 
	C57.698448,84.951912 78.169151,84.951912 99.835304,84.951912 
	C89.734322,67.761597 81.449623,50.776047 65.274071,39.780640 
	C58.325275,35.057167 50.387226,33.382465 42.077141,33.041069 
	C40.341484,32.969772 38.637749,32.121387 36.919304,31.631105 
	C37.041668,31.080450 37.164032,30.529793 37.286396,29.979137 
	C121.144356,29.979137 205.002319,29.979137 288.860260,29.979137 
	C289.079254,30.353046 289.298248,30.726954 289.517212,31.100863 
	C288.314240,31.763174 287.102600,33.016808 285.909546,32.999355 
	C267.147156,32.724869 254.128784,42.548882 244.032028,57.064831 
	C238.002960,65.732712 232.668137,74.883484 226.427887,84.755890 
	C248.328247,84.755890 268.751953,84.755890 289.175659,84.755890 
	C289.377716,85.236336 289.579773,85.716789 289.781860,86.197235 
	C288.412323,86.903831 287.047699,88.215096 285.672516,88.226288 
	C265.099030,88.393799 249.888885,98.231194 238.074524,114.301361 
	C232.002319,122.560898 225.977173,130.855011 219.371506,139.899261 
	C243.367981,139.899261 266.405701,139.899261 289.443390,139.899261 
	C289.612488,140.477554 289.781555,141.055847 289.950623,141.634125 
	C288.168579,142.320282 286.436157,143.379715 284.595428,143.624207 
	C278.511444,144.432434 272.272064,144.405487 266.304962,145.688309 
	C254.653702,148.193130 245.701019,155.468094 237.384201,163.579575 
	C228.804932,171.947006 220.304428,180.397491 211.603622,188.636490 
	C209.273819,190.842651 206.338547,192.409424 202.534546,195.072510 
	C232.413452,195.072510 260.932892,195.072510 289.452332,195.072510 
	C289.638885,195.593048 289.825439,196.113571 290.011993,196.634109 
	C288.555786,197.391235 287.076813,198.847519 285.646729,198.801025 
	C262.868713,198.060196 243.380814,206.227707 225.797958,220.127808 
	C207.123352,234.890976 185.345749,239.456802 162.053726,239.237152 
	C141.094849,239.039505 121.379593,234.997879 103.736900,222.298950 
z"/>
<path fill="#1F1F1E" opacity="1.000000" stroke="none" 
	d="
M112.000137,250.363068 
	C171.418915,250.363129 230.337692,250.363129 289.427551,250.363129 
	C289.461060,254.733231 286.562164,254.101807 284.266449,254.035141 
	C264.538116,253.462326 245.610336,256.934814 227.159760,264.056335 
	C217.906555,267.627869 208.255386,270.906097 198.496368,272.296051 
	C164.361511,277.157715 130.456390,277.113800 97.808189,263.643768 
	C80.137802,256.353333 61.686958,253.567322 42.657928,254.041763 
	C38.580173,254.143433 38.577515,254.036865 37.011475,250.362991 
	C62.036819,250.362991 86.768478,250.362991 112.000137,250.363068 
z"/>
<path fill="#272726" opacity="1.000000" stroke="none" 
	d="
M52.010971,309.046570 
	C48.015537,309.045746 44.502167,309.235046 41.026718,308.954529 
	C39.548740,308.835236 38.150154,307.732361 36.715492,307.076477 
	C36.907612,306.574402 37.099731,306.072357 37.291851,305.570282 
	C121.310379,305.570282 205.328903,305.570282 289.347443,305.570282 
	C289.562622,305.943817 289.777832,306.317383 289.993011,306.690918 
	C288.620880,307.474701 287.325897,308.506012 285.852600,308.965179 
	C284.637573,309.343811 283.211456,309.046417 281.878876,309.046417 
	C205.422043,309.046600 128.965210,309.046570 52.010971,309.046570 
z"/>
</svg>