<svg version="1.1" id="Layer_1" xmlns="http://www.w3.org/2000/svg" xmlns:xlink="http://www.w3.org/1999/xlink" x="0px" y="0px"
	 width="100%" viewBox="0 0 1024 704" enable-background="new 0 0 1024 704" xml:space="preserve">
<path fill="#000000" opacity="1.000000" stroke="none" 
	d="
M461.702515,482.761871 
	C430.137543,504.757263 395.219055,514.716614 357.348816,516.539978 
	C326.687744,518.016235 296.485962,516.648071 266.785645,508.416718 
	C244.122528,502.135681 224.138718,490.651581 205.336990,476.879059 
	C191.221863,466.539520 177.233856,456.046600 161.304260,448.493317 
	C135.041611,436.040497 107.255173,431.182281 78.400208,431.356995 
	C72.041718,431.395477 71.087425,430.499786 69.543549,422.776886 
	C129.690552,422.776886 189.640396,422.776886 249.146713,422.776886 
	C250.008728,420.711792 249.314926,420.148285 248.631470,419.729187 
	C227.034607,406.485962 210.181946,387.985199 193.052948,369.764557 
	C181.980118,357.986023 170.690063,346.434784 157.461899,336.952545 
	C138.064117,323.047821 116.505463,315.755676 92.661858,315.203613 
	C88.164223,315.099487 83.663788,315.111267 79.164566,315.082428 
	C72.394089,315.039032 71.171097,313.996155 69.710167,306.910156 
	C71.312637,305.221344 73.432899,305.898254 75.328445,305.896179 
	C119.323456,305.848083 163.318512,305.847687 207.313568,305.836670 
	C208.813278,305.836273 210.320312,305.908234 211.811264,305.788544 
	C215.851913,305.464294 216.623901,304.054962 214.153030,300.774872 
	C198.421692,279.891266 184.411301,257.737732 167.010284,238.078400 
	C143.819275,211.877670 115.201874,198.013245 80.004326,198.248566 
	C72.271851,198.300278 72.008507,198.030716 69.185524,189.220398 
	C112.954506,189.220398 156.340240,189.220398 199.210205,189.220398 
	C200.397446,186.376175 199.747879,184.988922 199.006836,183.700363 
	C185.800766,160.737610 173.071487,137.456833 155.442764,117.402908 
	C139.842926,99.656982 121.467339,86.498924 97.507507,82.754433 
	C91.424103,81.803703 85.302872,81.173355 79.110626,81.275261 
	C72.289268,81.387512 71.552414,80.678497 69.702179,73.213814 
	C248.306641,73.213814 426.781799,73.213814 605.261047,73.213814 
	C604.959106,78.995804 603.090759,81.418800 598.353210,81.262245 
	C563.251404,80.102287 536.669373,95.900925 515.388855,122.532639 
	C499.816589,142.020782 487.527100,163.574738 475.493378,185.300034 
	C475.101349,186.007782 474.936249,186.841217 474.221588,188.885468 
	C518.369812,188.885468 561.952087,188.885468 605.678894,188.885468 
	C604.689392,196.269226 602.955933,198.332840 597.861145,198.219818 
	C558.433960,197.344971 527.510864,213.918152 502.947266,243.957138 
	C487.632477,262.685669 474.568909,283.050079 460.008148,302.321960 
	C459.533203,302.950531 459.332489,303.786255 458.494263,305.672058 
	C507.961945,305.672058 556.744568,305.672058 605.610413,305.672058 
	C604.928101,313.202942 602.962891,315.213684 596.557129,315.061279 
	C578.951050,314.642426 561.641113,315.964874 544.940979,322.218262 
	C523.966003,330.072388 507.258728,343.888794 491.927216,359.666595 
	C481.245178,370.659576 470.693512,381.779236 460.032562,392.792877 
	C450.723816,402.409576 440.397125,410.801331 429.179352,418.100616 
	C428.205933,418.734009 427.251984,419.413788 426.376892,420.173340 
	C426.056885,420.451050 425.992676,421.023529 425.336456,422.612427 
	C485.810547,422.612427 545.718445,422.612427 605.822571,422.612427 
	C604.362305,430.381439 603.286865,431.480011 597.100281,431.356140 
	C551.661011,430.446442 511.258331,444.219635 475.807251,472.663940 
	C471.397766,476.201874 466.610657,479.269165 461.702515,482.761871 
z"/>
<path fill="#000000" opacity="1.000000" stroke="none" 
	d="
M195.000122,539.630127 
	C332.181793,539.630005 468.863434,539.630005 605.723083,539.630005 
	C604.153503,547.378906 603.107422,548.425964 596.522339,548.280334 
	C567.273804,547.633423 538.325134,549.596436 509.888214,557.109924 
	C491.637146,561.932068 474.394653,569.514709 456.683319,575.812744 
	C434.931885,583.547485 412.515533,588.190002 389.545380,590.360962 
	C357.288483,593.409607 324.987274,593.257019 292.728149,591.066833 
	C261.466614,588.944397 231.268738,581.777893 202.272171,569.706970 
	C174.559296,558.170471 145.790359,551.145508 115.759834,549.039795 
	C103.428101,548.175171 91.130714,548.581360 78.820274,548.306641 
	C72.293640,548.161011 71.136108,547.240967 69.647118,539.630310 
	C111.369247,539.630310 152.934692,539.630310 195.000122,539.630127 
z"/>
<path fill="#000000" opacity="1.000000" stroke="none" 
	d="
M383.000000,655.983765 
	C457.536469,655.984009 531.572937,655.984009 605.839722,655.984009 
	C604.211426,664.139526 603.002747,665.139282 595.631775,665.140198 
	C423.358032,665.160339 251.084290,665.173950 78.810539,665.182373 
	C72.356499,665.182678 71.652557,664.552124 69.168854,655.983459 
	C173.860626,655.983459 278.180298,655.983459 383.000000,655.983765 
z"/>
<path fill="#000000" opacity="1.000000" stroke="none" 
	d="
M751.199097,94.647141 
	C768.338196,94.494209 784.994995,94.404480 801.650269,94.191566 
	C805.039612,94.148239 806.414490,95.385475 806.365295,98.869858 
	C806.217163,109.364944 806.495056,119.868858 806.197205,130.357697 
	C806.069580,134.851746 807.702393,136.396210 811.974426,135.993942 
	C814.118225,135.792099 816.303040,135.973633 818.466797,136.051849 
	C820.557495,136.127426 821.964661,137.018066 822.046021,139.337616 
	C822.133789,141.839584 820.860046,143.051025 818.440796,143.086212 
	C813.609863,143.156479 808.778198,143.212967 803.946838,143.211899 
	C783.286011,143.207291 762.625183,143.188293 741.964417,143.145203 
	C740.165466,143.141449 738.199402,143.567780 736.685730,142.223114 
	C735.405945,141.086121 735.596619,139.453705 735.980957,138.017120 
	C736.539795,135.928253 738.424500,136.009048 740.070923,135.999664 
	C747.735168,135.955948 755.399780,135.969116 763.064270,135.965240 
	C773.561340,135.959961 784.059265,135.881485 794.554993,135.997421 
	C798.004211,136.035522 799.784363,135.143768 799.686462,131.232819 
	C799.473877,122.740479 799.487000,114.236198 799.679688,105.742966 
	C799.761536,102.135307 798.281799,101.192474 794.936462,101.218498 
	C780.608154,101.329979 766.278198,101.263145 751.949036,101.225761 
	C750.126465,101.221008 748.100769,101.308922 747.769043,98.743385 
	C747.477844,96.490845 747.910095,94.706230 751.199097,94.647141 
z"/>
<path fill="#000000" opacity="1.000000" stroke="none" 
	d="
M914.000000,110.009201 
	C922.328674,110.018005 930.157471,110.015808 937.986084,110.041008 
	C940.653259,110.049591 943.147461,110.346725 942.996887,113.975670 
	C942.853699,117.428391 940.329163,117.245461 937.961243,117.245911 
	C912.642883,117.250732 887.324463,117.251122 862.006104,117.237434 
	C859.482971,117.236069 856.779053,117.480492 856.778381,113.655060 
	C856.777771,109.814865 859.562927,110.066826 862.030518,110.059631 
	C879.186890,110.009575 896.343506,110.018753 914.000000,110.009201 
z"/>
</svg>